<svg width="60" height="60" viewBox="0 0 60 60" fill="none" xmlns="http://www.w3.org/2000/svg">
<path d="M22.5355 36.3513C22.5355 35.9553 22.6455 35.6473 22.8655 35.4273C23.1002 35.1926 23.4082 35.0753 23.7895 35.0753C24.1855 35.0753 24.5009 35.1926 24.7355 35.4273C24.9702 35.6473 25.0875 35.9553 25.0875 36.3513C25.0875 36.7326 24.9702 37.0406 24.7355 37.2753C24.5009 37.5099 24.1855 37.6273 23.7895 37.6273C23.4082 37.6273 23.1002 37.5099 22.8655 37.2753C22.6455 37.0406 22.5355 36.7326 22.5355 36.3513ZM28.6801 36.3513C28.6801 35.9553 28.7901 35.6473 29.0101 35.4273C29.2447 35.1926 29.5527 35.0753 29.9341 35.0753C30.3301 35.0753 30.6454 35.1926 30.8801 35.4273C31.1147 35.6473 31.2321 35.9553 31.2321 36.3513C31.2321 36.7326 31.1147 37.0406 30.8801 37.2753C30.6454 37.5099 30.3301 37.6273 29.9341 37.6273C29.5527 37.6273 29.2447 37.5099 29.0101 37.2753C28.7901 37.0406 28.6801 36.7326 28.6801 36.3513ZM34.8246 36.3513C34.8246 35.9553 34.9346 35.6473 35.1546 35.4273C35.3892 35.1926 35.6972 35.0753 36.0786 35.0753C36.4746 35.0753 36.7899 35.1926 37.0246 35.4273C37.2592 35.6473 37.3766 35.9553 37.3766 36.3513C37.3766 36.7326 37.2592 37.0406 37.0246 37.2753C36.7899 37.5099 36.4746 37.6273 36.0786 37.6273C35.6972 37.6273 35.3892 37.5099 35.1546 37.2753C34.9346 37.0406 34.8246 36.7326 34.8246 36.3513Z" fill="black"/>
</svg>
