<svg width="114" height="21" viewBox="0 0 114 21" fill="none" xmlns="http://www.w3.org/2000/svg">
<path d="M6.5 3.5L0.5 9.30006V15.5001H12.5V9.30006L6.5 3.5ZM11.5 14.5001H1.5V9.70005L6.5 4.9L11.5 9.70005V14.5001Z" fill="white"/>
<path d="M4.5 13.5001H5.5V11.0001H7.5V13.5001H8.5V10.0001H4.5V13.5001Z" fill="white"/>
<path d="M29.9151 9.96875L25.1651 5.71875C24.9151 5.46875 24.4151 5.46875 24.0401 5.71875C23.6651 5.96875 23.7901 6.46875 24.0401 6.71875L28.1651 10.4688L24.1651 14.2188C23.9151 14.4688 23.9151 14.9688 24.1651 15.2188C24.1651 15.3438 24.5401 15.4688 24.6651 15.4688C24.7901 15.4688 25.0401 15.3438 25.1651 15.2188L29.9151 10.9688C30.2901 10.7188 30.2901 10.2188 29.9151 9.96875Z" fill="white"/>
<path d="M48.36 5.984H43.688V16H42.36V4.8H48.36V5.984ZM47.0965 12C47.0965 10.6453 47.3952 9.61067 47.9925 8.896C48.6005 8.17067 49.4698 7.808 50.6005 7.808C51.1978 7.808 51.7152 7.90933 52.1525 8.112C52.6005 8.304 52.9685 8.58667 53.2565 8.96C53.5445 9.32267 53.7578 9.76533 53.8965 10.288C54.0352 10.8 54.1045 11.3707 54.1045 12C54.1045 13.3547 53.8005 14.3947 53.1925 15.12C52.5952 15.8347 51.7312 16.192 50.6005 16.192C50.0032 16.192 49.4805 16.096 49.0325 15.904C48.5952 15.7013 48.2325 15.4187 47.9445 15.056C47.6565 14.6827 47.4432 14.24 47.3045 13.728C47.1658 13.2053 47.0965 12.6293 47.0965 12ZM48.4245 12C48.4245 12.4053 48.4618 12.7947 48.5365 13.168C48.6218 13.5413 48.7498 13.8667 48.9205 14.144C49.0912 14.4213 49.3152 14.6453 49.5925 14.816C49.8698 14.9867 50.2058 15.072 50.6005 15.072C52.0512 15.0827 52.7765 14.0587 52.7765 12C52.7765 11.584 52.7338 11.1893 52.6485 10.816C52.5738 10.4427 52.4512 10.1173 52.2805 9.84C52.1098 9.56267 51.8858 9.344 51.6085 9.184C51.3312 9.01333 50.9952 8.928 50.6005 8.928C49.1498 8.91733 48.4245 9.94133 48.4245 12ZM61.5786 15.472C61.2586 15.7067 60.88 15.8827 60.4426 16C60.0053 16.128 59.5466 16.192 59.0666 16.192C58.448 16.192 57.9253 16.096 57.4986 15.904C57.072 15.7013 56.72 15.4187 56.4426 15.056C56.176 14.6827 55.9786 14.24 55.8506 13.728C55.7333 13.2053 55.6746 12.6293 55.6746 12C55.6746 10.6453 55.9733 9.61067 56.5706 8.896C57.168 8.17067 58.0266 7.808 59.1466 7.808C59.6586 7.808 60.0906 7.85067 60.4426 7.936C60.8053 8.01067 61.1306 8.12267 61.4186 8.272L61.0506 9.376C60.8053 9.23733 60.5333 9.13067 60.2346 9.056C59.936 8.97067 59.616 8.928 59.2746 8.928C57.76 8.928 57.0026 9.952 57.0026 12C57.0026 12.4053 57.04 12.7947 57.1146 13.168C57.2 13.5307 57.3333 13.856 57.5146 14.144C57.7066 14.4213 57.952 14.6453 58.2506 14.816C58.56 14.9867 58.9386 15.072 59.3866 15.072C59.7706 15.072 60.112 15.0133 60.4106 14.896C60.72 14.7787 60.9706 14.6453 61.1626 14.496L61.5786 15.472ZM68.1954 9.12H65.6834V16H64.4034V9.12H61.8914V8H68.1954V9.12ZM74.4584 11.264L74.5064 10.272H74.4584L73.8024 11.296L70.2024 16H69.4664V8H70.7464V12.88L70.6984 13.824H70.7624L71.3864 12.832L74.9864 8H75.7384V16H74.4584V11.264ZM83.0968 12.464H79.4808V16H78.2008V8H79.4808V11.344H83.0968V8H84.3768V16H83.0968V12.464ZM91.8334 11.264L91.8814 10.272H91.8334L91.1774 11.296L87.5774 16H86.8414V8H88.1214V12.88L88.0734 13.824H88.1374L88.7614 12.832L92.3614 8H93.1134V16H91.8334V11.264ZM102.76 18.032H101.896L101.656 16H95.5758V8H96.8558V14.88H100.328V8H101.608V14.88H102.76V18.032ZM105.621 14.88C106.016 14.944 106.395 14.976 106.757 14.976C107.429 14.976 107.899 14.848 108.165 14.592C108.432 14.3253 108.565 13.952 108.565 13.472C108.565 13.0453 108.432 12.6933 108.165 12.416C107.909 12.1387 107.456 12 106.805 12C106.624 12 106.427 12.0053 106.213 12.016C106 12.0267 105.803 12.0587 105.621 12.112V14.88ZM105.621 11.056C105.877 11.0133 106.123 10.9867 106.357 10.976C106.592 10.9547 106.816 10.944 107.029 10.944C107.573 10.944 108.027 11.008 108.389 11.136C108.763 11.2533 109.061 11.4187 109.285 11.632C109.509 11.8453 109.664 12.1013 109.749 12.4C109.845 12.688 109.893 12.9973 109.893 13.328C109.893 14.2987 109.621 15.0027 109.077 15.44C108.544 15.8773 107.675 16.096 106.469 16.096C105.787 16.096 105.077 16.064 104.341 16V8H105.621V11.056ZM111.157 8H112.437V16H111.157V8Z" fill="white"/>
</svg>
