<svg width="48" height="41" viewBox="0 0 48 41" fill="none" xmlns="http://www.w3.org/2000/svg">
<path fill-rule="evenodd" clip-rule="evenodd" d="M35.1165 14.8044C35.2825 14.2584 35.1165 13.8564 34.3215 13.8564H31.6965C31.0285 13.8564 30.7205 14.2034 30.5535 14.5864C30.5535 14.5864 29.2185 17.7824 27.3275 19.8584C26.7155 20.4604 26.4375 20.6514 26.1035 20.6514C25.9365 20.6514 25.6855 20.4604 25.6855 19.9134V14.8044C25.6855 14.1484 25.5015 13.8564 24.9455 13.8564H20.8175C20.4005 13.8564 20.1495 14.1604 20.1495 14.4494C20.1495 15.0704 21.0955 15.2144 21.1925 16.9624V20.7604C21.1925 21.5934 21.0395 21.7444 20.7055 21.7444C19.8155 21.7444 17.6505 18.5334 16.3655 14.8594C16.1165 14.1444 15.8645 13.8564 15.1935 13.8564H12.5665C11.8165 13.8564 11.6665 14.2034 11.6665 14.5864C11.6665 15.2684 12.5565 18.6564 15.8115 23.1374C17.9815 26.1974 21.0365 27.8564 23.8195 27.8564C25.4885 27.8564 25.6945 27.4884 25.6945 26.8534V24.5404C25.6945 23.8034 25.8525 23.6564 26.3815 23.6564C26.7715 23.6564 27.4385 23.8484 28.9965 25.3234C30.7765 27.0724 31.0695 27.8564 32.0715 27.8564H34.6965C35.4465 27.8564 35.8225 27.4884 35.6065 26.7604C35.3685 26.0364 34.5185 24.9854 33.3915 23.7384C32.7795 23.0284 31.8615 22.2634 31.5825 21.8804C31.1935 21.3894 31.3045 21.1704 31.5825 20.7334C31.5825 20.7334 34.7825 16.3074 35.1155 14.8044H35.1165Z" fill="#83B3D3"/>
</svg>
